HIERARCHY
ROOT Hips
{
  OFFSET 3.13124 94.3669 -3.18751
  CHANNELS  6 Xposition Yposition Zposition Zrotation Xrotation Yrotation
  JOINT LeftUpLeg
  {
    OFFSET 8.64259 1.95398 -2.38835
    CHANNELS 3 Zrotation Xrotation Yrotation
    JOINT LeftLeg
    {
      OFFSET 43.7702 0 0
      CHANNELS 3 Zrotation Xrotation Yrotation
      JOINT LeftFoot
      {
        OFFSET 40.6238 0 0
        CHANNELS 3 Zrotation Xrotation Yrotation
        JOINT LeftToeBase
        {
          OFFSET 12.7242 0 0
          CHANNELS 3 Zrotation Xrotation Yrotation
          End Site
          {
            OFFSET 0 0 0
          }
        }
      }
    }
  }
  JOINT RightUpLeg
  {
    OFFSET -8.2249 1.95398 -2.59336
    CHANNELS 3 Zrotation Xrotation Yrotation
    JOINT RightLeg
    {
      OFFSET 43.5653 0 0
      CHANNELS 3 Zrotation Xrotation Yrotation
      JOINT RightFoot
      {
        OFFSET 40.6238 0 0
        CHANNELS 3 Zrotation Xrotation Yrotation
        JOINT RightToeBase
        {
          OFFSET 12.7242 0 0
          CHANNELS 3 Zrotation Xrotation Yrotation
          End Site
          {
            OFFSET 0 0 0
          }
        }
      }
    }
  }
  JOINT Spine
  {
    OFFSET 0.165834 0.87714 6.61349
    CHANNELS 3 Zrotation Xrotation Yrotation
    JOINT Spine1
    {
      OFFSET 7.38962 1.71661e-005 0
      CHANNELS 3 Zrotation Xrotation Yrotation
      JOINT Spine2
      {
        OFFSET 11.9445 1.14441e-005 0
        CHANNELS 3 Zrotation Xrotation Yrotation
        JOINT Spine3
        {
          OFFSET 14.7254 4.19617e-005 0
          CHANNELS 3 Zrotation Xrotation Yrotation
          JOINT Spine4
          {
            OFFSET 10.9679 0 0
            CHANNELS 3 Zrotation Xrotation Yrotation
            JOINT RightShoulder
            {
              OFFSET 2.46616 -1.6653 3.69651
              CHANNELS 3 Zrotation Xrotation Yrotation
              JOINT RightArm
              {
                OFFSET 13.0012 0 0
                CHANNELS 3 Zrotation Xrotation Yrotation
                JOINT RightForeArm
                {
                  OFFSET 28.7848 1.52588e-005 0
                  CHANNELS 3 Zrotation Xrotation Yrotation
                  JOINT RightHand
                  {
                    OFFSET 26.5688 1.52588e-005 0
                    CHANNELS 3 Zrotation Xrotation Yrotation
                    End Site
                    {
                      OFFSET 0 0 0
                    }
                  }
                }
              }
            }
            JOINT LeftShoulder
            {
              OFFSET 2.38034 -1.29275 -3.75231
              CHANNELS 3 Zrotation Xrotation Yrotation
              JOINT LeftArm
              {
                OFFSET 16.3182 6.10352e-005 0
                CHANNELS 3 Zrotation Xrotation Yrotation
                JOINT LeftForeArm
                {
                  OFFSET 27.0901 0 0
                  CHANNELS 3 Zrotation Xrotation Yrotation
                  JOINT LeftHand
                  {
                    OFFSET 24.5451 1.52588e-005 0
                    CHANNELS 3 Zrotation Xrotation Yrotation
                    End Site
                    {
                      OFFSET 0 0 0
                    }
                  }
                }
              }
            }
            JOINT Neck
            {
              OFFSET 5.0226 -0.0266342 0
              CHANNELS 3 Zrotation Xrotation Yrotation
              JOINT Head
              {
                OFFSET 6.69363 2.86102e-005 0
                CHANNELS 3 Zrotation Xrotation Yrotation
                End Site
                {
                  OFFSET 0 0 0
                }
              }
            }
          }
        }
      }
    }
  }
}
MOTION
Frames:	9
Frame Time:	0.0333333
37.7107 93.5822 -9.98168 109.988 -80.5498 115.001 -178.858 3.72944 91.6414 -21.3188 10.8435 0.67162 70.7909 -0.343455 -0.0621662 28.7808 6.24103e-006 1.07264e-005 175.795 10.1386 73.8571 -30.0905 -40.8008 -2.50153 44.4645 8.56477 7.64707 28.7808 1.24941e-005 1.70732e-005 -0.351722 6.58039 -88.4934 13.7033 -0.0175992 2.77998 2.02939 0.104746 2.77804 -20.4835 -0.85192 2.64639 -0.470893 -0.85193 2.64636 100.237 -21.6214 -86.6774 3.9422 25.9334 8.09023 -2.12998 2.06293 -30.7081 20.4497 1.90012 5.2513 -95.8126 -54.3593 71.3953 -22.8742 -14.5178 -0.986176 2.77139 20.8732 -3.82803 16.2776 -2.59943 -19.539 2.26448 -6.79841 -0.658503 8.12399 -7.75607 -13.7174 
37.3134 93.6999 -10.0333 107.354 -79.9096 112.802 -178.559 4.02373 92.4859 -21.2041 11.9652 0.730181 70.6946 -1.08483 -0.431396 28.7808 6.24103e-006 1.07264e-005 175.92 10.254 74.317 -30.116 -40.9212 -2.51142 44.4264 9.40715 8.33993 28.7808 1.24941e-005 1.70732e-005 -0.402387 6.61329 -88.4021 13.6367 -0.0737805 2.96378 1.96241 0.0562815 2.9642 -20.5477 -0.961875 2.80449 -0.535034 -0.961879 2.80448 100.52 -20.5295 -86.0921 3.13556 26.0931 7.54873 -1.87449 2.69767 -29.3794 20.0329 1.69651 4.34921 -95.9058 -54.3731 71.2688 -22.7682 -14.5215 -1.69788 2.66115 17.1036 -3.71404 17.9485 -2.84989 -19.6773 2.93442 -6.69236 -1.02555 9.06548 -7.65846 -13.3783 
36.8794 93.8317 -9.99315 106.382 -79.4 112.259 -178.197 3.63647 93.3742 -20.1641 13.0722 0.779947 70.4817 -1.73818 -0.769144 28.7808 6.24103e-006 1.07264e-005 176.01 10.2373 74.7181 -30.0879 -41.1265 -2.52148 44.504 10.1277 8.91352 28.7808 1.24941e-005 1.70732e-005 -0.414938 6.66593 -88.3013 13.5325 -0.0581434 3.13183 1.8579 0.0792052 3.13138 -20.6496 -0.996801 2.9697 -0.636994 -0.996817 2.9697 100.753 -19.1231 -85.6328 2.1283 26.1134 7.37511 -1.58786 3.58188 -27.3876 21.2967 1.22609 1.37651 -96.0402 -54.4036 71.0888 -22.4229 -14.6118 -2.28082 2.58876 14.4269 -3.63882 18.5253 -3.04449 -20.2872 3.8437 -6.55411 -0.965644 9.64555 -7.61367 -13.6315 
36.413 94.0087 -10.0766 102.429 -78.8808 108.675 -177.891 4.10867 94.0907 -19.4523 14.1776 0.832933 69.8961 -1.78398 -0.82089 28.7808 6.24103e-006 1.07264e-005 175.964 10.532 74.9663 -29.2033 -41.1357 -2.5112 44.1508 9.64727 8.58237 28.7808 1.24941e-005 1.70732e-005 -0.458878 6.66489 -88.211 13.5313 -0.0952577 3.33139 1.85609 0.051653 3.33238 -20.6475 -1.09192 3.14902 -0.634882 -1.09194 3.149 101.009 -17.6107 -85.095 1.30346 25.9721 6.63806 -1.11817 5.21787 -24.8256 21.9292 0.718517 -1.3462 -96.3061 -54.6047 70.7738 -21.6181 -14.8541 -2.85858 2.58386 14.2405 -3.63374 17.475 -2.36635 -17.3303 5.08138 -6.37287 -0.818426 9.95769 -7.51555 -13.9727 
35.8985 94.1532 -10.0816 99.7218 -78.4814 106.492 -177.626 4.86246 94.9023 -19.7474 14.6541 0.861027 69.5976 -2.26206 -1.07107 28.7808 6.24103e-006 1.07264e-005 175.918 10.7852 75.2773 -28.4114 -40.6923 -2.47716 43.2758 8.39466 7.69305 28.7808 1.24941e-005 1.70732e-005 -0.483375 6.67183 -88.1493 13.5168 -0.100224 3.51074 1.84111 0.0545929 3.51178 -20.659 -1.15015 3.31877 -0.646386 -1.15017 3.31874 101.23 -16.5897 -84.5873 0.561932 25.9839 5.12124 -0.988523 6.2818 -22.4554 19.8682 0.553631 -1.87734 -96.5638 -54.6914 70.4415 -20.8584 -15.1061 -2.86837 2.60642 15.0952 -3.65717 17.069 -2.16932 -16.4618 5.73876 -6.13413 -1.46911 11.0042 -7.22351 -13.4562 
35.3097 94.2901 -10.069 97.0652 -78.0607 104.242 -177.303 5.0596 95.7257 -18.7878 15.6625 0.906787 69.1632 -2.73975 -1.34054 28.7808 6.24103e-006 1.07264e-005 176.017 11.3533 75.4521 -28.2645 -39.4842 -2.38592 41.3965 7.05531 6.83644 28.7808 1.24941e-005 1.70732e-005 -0.521456 6.67847 -88.0316 13.5019 -0.124911 3.70498 1.82569 0.0383396 3.70691 -20.6706 -1.23213 3.49661 -0.657946 -1.23213 3.49661 101.266 -15.2612 -84.5687 0.132352 25.4857 2.57177 -0.904473 8.65599 -17.8818 17.1594 0.254412 -3.2772 -96.7017 -54.8354 70.2851 -20.1835 -15.3285 -2.86129 2.63861 16.2877 -3.69059 16.6769 -1.9622 -15.4892 7.06747 -5.74029 -2.04042 11.239 -6.68512 -13.0618 
34.6941 94.3943 -10.0281 95.4692 -77.7199 103.088 -177.024 5.58038 96.5337 -18.8965 16.225 0.937726 68.9774 -2.83493 -1.40108 28.7808 6.24103e-006 1.07264e-005 176.042 11.6454 75.5744 -28.066 -39.0028 -2.35108 39.9461 6.30149 6.38211 28.7808 1.24941e-005 1.70732e-005 -0.542574 6.69752 -87.9557 13.4628 -0.128758 3.85777 1.78608 0.0412547 3.85971 -20.7069 -1.28157 3.64127 -0.69429 -1.28158 3.64127 101.312 -14.1424 -84.5087 -0.261456 23.6789 -4.28429 -2.7836 11.5884 -5.02055 13.2382 -0.75273 -11.1083 -96.9398 -55.3929 70.1208 -19.1864 -15.6552 -2.92735 2.68289 17.8738 -3.73647 15.6539 -1.6109 -13.9339 7.71174 -5.20951 -2.80621 12.4659 -5.99165 -11.9345 
34.0284 94.5134 -10.0293 93.2848 -77.2779 101.323 -176.671 5.89733 97.3509 -18.1096 17.121 0.979421 68.5517 -3.05924 -1.54495 28.7808 6.24103e-006 1.07264e-005 176.01 11.7737 75.6222 -27.5295 -38.3909 -2.302 38.8715 6.20802 6.43391 28.7808 1.24941e-005 1.70732e-005 -0.565284 6.70783 -87.8853 13.4412 -0.14416 3.97721 1.76419 0.0306186 3.97964 -20.7264 -1.33031 3.75104 -0.713759 -1.33033 3.75102 101.268 -13.0293 -84.6994 -1.06858 24.0837 -4.69105 -2.58861 15.893 -5.09321 11.7811 -0.764121 -11.8564 -97.2463 -56.3445 69.9774 -18.068 -16.0263 -3.59741 2.74133 19.8795 -3.79695 15.1182 -1.15624 -11.2877 8.35956 -4.47525 -3.18611 13.7672 -5.18692 -10.9853 
33.3442 94.6108 -9.99145 92.1931 -76.903 100.54 -176.376 6.13433 98.0754 -17.6964 17.7139 1.00815 68.2606 -3.3141 -1.69614 28.7808 6.24103e-006 1.07264e-005 175.814 11.5408 75.4749 -26.7823 -38.7658 -2.32231 38.1662 6.05541 6.39347 28.7808 1.24941e-005 1.70732e-005 -0.540898 6.74001 -87.848 13.3751 -0.0752417 4.05506 1.69788 0.103159 4.05445 -20.7903 -1.28957 3.84563 -0.777686 -1.28957 3.8456 101.215 -11.6932 -84.9442 -1.57453 24.3696 -5.24583 -2.41187 19.6215 -5.16736 9.78669 -0.721167 -12.6966 -97.8168 -57.6671 69.5889 -16.1998 -16.6647 -4.24737 2.83129 22.7762 -3.88971 12.3044 -0.845292 -10.2237 8.72596 -3.74163 -2.46425 15.3446 -4.74415 -10.806 
